PathFileType	4	(X/Y/Z)	Run_500 01
DataRate	CameraRate	NumFrames	NumMarkers	Units	OrigDataRate	OrigDataStartFrame	OrigNumFrames
120	120	4	42	mm	120	249	128
Frame#	Time	LASI			RASI			LPSI			RPSI			RTH1			RTH2			RTH3			LTH1			LTH2			LTH3			RTB1			RTB2			LTB1			LTB2			LTB3			RCAL			RTOE			RMT5			LCAL			LTOE			LMT5			LACR			RACR			CLAV			C7			RUA1			RUA2			RUA3			RLEL			LUA1			LUA2			LUA3			LLEL			LMEL			RFAsuperior			RFAradius			RFAulna			LFAsuperior			LFAradius			LFAulna			RMEL			RTB3		
		X1	Y1	Z1	X2	Y2	Z2	X3	Y3	Z3	X4	Y4	Z4	X5	Y5	Z5	X6	Y6	Z6	X7	Y7	Z7	X8	Y8	Z8	X9	Y9	Z9	X10	Y10	Z10	X11	Y11	Z11	X12	Y12	Z12	X13	Y13	Z13	X14	Y14	Z14	X15	Y15	Z15	X16	Y16	Z16	X17	Y17	Z17	X18	Y18	Z18	X19	Y19	Z19	X20	Y20	Z20	X21	Y21	Z21	X22	Y22	Z22	X23	Y23	Z23	X24	Y24	Z24	X25	Y25	Z25	X26	Y26	Z26	X27	Y27	Z27	X28	Y28	Z28	X29	Y29	Z29	X30	Y30	Z30	X31	Y31	Z31	X32	Y32	Z32	X33	Y33	Z33	X34	Y34	Z34	X35	Y35	Z35	X36	Y36	Z36	X37	Y37	Z37	X38	Y38	Z38	X39	Y39	Z39	X40	Y40	Z40	X41	Y41	Z41	X42	Y42	Z42	

249	  2.075000	1231.698398	1010.590886	-418.107555	1205.332438	1031.441733	-194.283485	1070.904696	1082.070881	-388.076672	1053.968019	1082.190324	-290.703978	1182.235814	885.554539	-141.226791	1326.666159	792.875894	-161.506647	1321.267758	687.308042	-176.004709	1112.887887	861.502970	-489.220774	1131.447601	738.256314	-443.217750	1008.550572	657.037040	-442.987467	1462.404973	497.408141	-237.339993	1423.157885	430.766428	-178.366164	861.590144	467.092171	-377.872756	763.448508	463.385323	-440.096393	672.750605	410.691115	-380.030134	1402.006353	163.053963	-289.167439	1612.737104	174.603442	-300.515169	1597.297115	116.094346	-210.002351	531.815250	481.326522	-406.730804	545.734607	295.830678	-312.031705	508.380878	268.470802	-410.750879	1259.285370	1504.707963	-496.644237	1149.494561	1503.969007	-150.921884	1260.849699	1458.852197	-272.604398	1166.324300	1538.198873	-343.320487	1087.876025	1461.023646	-116.598928	1056.068519	1378.780280	-123.548022	982.894284	1419.287053	-155.085186	895.772888	1343.128066	-144.687612	1251.098087	1422.866606	-552.535310	1184.202853	1370.540464	-554.232972	1255.833848	1323.216405	-574.762829	1204.143473	1210.733234	-611.405786	1143.706724	1206.945239	-566.087434	915.930645	1272.095618	-88.706927	931.785471	1090.953141	-40.606518	873.434996	1081.189657	-74.937603	1274.310824	1245.715499	-571.843856	1327.043072	1355.192065	-423.491644	1370.145693	1304.574663	-410.777074	913.539906	1327.903116	-204.968705	1487.788274	318.242150	-248.987874	
250	  2.083333	1233.623122	1011.611870	-418.661161	1206.770668	1029.983217	-195.176464	1071.471285	1080.723335	-386.993696	1054.788641	1079.440701	-289.470518	1180.453785	881.168111	-139.769323	1321.940402	781.652279	-161.634587	1313.762624	676.775300	-176.013849	1118.638070	858.588398	-487.957924	1137.590466	736.862860	-441.910768	1015.624775	654.335286	-442.172349	1459.394388	491.038579	-237.452327	1423.138301	422.479048	-179.382964	864.059292	469.702817	-379.377936	763.857403	478.402886	-440.605085	670.031877	430.265402	-381.721987	1420.804859	156.458684	-292.125452	1632.100664	177.008435	-301.038918	1617.786490	117.137711	-212.886559	534.638851	513.194368	-405.582421	536.446553	325.078639	-315.208599	494.751029	302.853665	-413.303831	1261.023737	1504.218637	-494.491695	1152.780852	1503.150565	-148.712123	1262.641840	1457.752684	-271.355127	1168.706621	1538.470305	-341.144891	1090.597481	1460.613639	-114.759127	1058.508612	1378.209381	-122.961195	985.890999	1418.561031	-154.864946	898.376685	1343.090790	-145.342010	1251.315401	1424.315167	-551.146693	1183.951076	1373.859441	-554.267403	1253.146897	1324.042525	-574.089147	1197.362655	1214.551822	-613.523207	1137.079877	1211.964280	-568.146071	919.975494	1270.709954	-90.681246	934.765198	1089.240883	-44.303032	876.973644	1079.547606	-79.579866	1269.312034	1244.330995	-573.237650	1331.409091	1343.766509	-420.818525	1369.575650	1289.143063	-410.147954	916.589964	1328.278062	-205.756873	1496.317186	314.955526	-248.418714	
251	  2.091667	1235.605740	1011.185417	-419.459079	1208.062343	1028.251351	-195.822367	1071.890350	1077.946774	-385.965459	1055.536306	1075.589455	-288.194582	1180.044839	877.095850	-138.040233	1317.331522	770.680545	-162.069144	1306.517198	666.853244	-176.327157	1124.232013	854.863140	-487.053415	1143.363990	734.881718	-442.120081	1022.656093	651.266553	-441.853891	1455.495832	485.397690	-236.664813	1420.204437	415.105747	-180.378311	867.934864	471.826111	-380.615417	767.203822	492.774763	-440.844209	670.523652	449.579590	-383.130207	1432.583557	151.897616	-296.270658	1643.960638	178.774530	-301.055371	1630.043464	117.236991	-215.100164	542.022306	544.546514	-403.861837	530.194344	354.381449	-318.872161	485.984568	338.285188	-416.977314	1262.225342	1502.884406	-492.242633	1156.425309	1501.186140	-146.223735	1264.388177	1455.487906	-270.240098	1170.830670	1537.870699	-338.803239	1093.755536	1459.261088	-112.792857	1061.239964	1376.573893	-122.058831	989.307827	1416.850277	-154.528934	901.404098	1342.002257	-145.195197	1250.705779	1425.559252	-549.628023	1182.829633	1376.757487	-553.501134	1249.487560	1324.454222	-573.404964	1189.575721	1217.929180	-615.508831	1129.709268	1216.520381	-569.647092	924.493200	1268.246487	-92.046585	938.903838	1086.199922	-47.884589	881.748364	1076.545641	-84.157639	1263.173592	1242.095743	-574.799935	1335.609193	1329.890143	-419.184898	1367.445599	1271.402816	-410.918706	919.762918	1327.863420	-205.677491	1500.437931	312.004783	-247.687482	
252	  2.100000	1237.559581	1009.406358	-420.445194	1209.020462	1026.052566	-196.115204	1072.211961	1073.975533	-385.186503	1056.009588	1071.022000	-287.142718	1180.740945	873.128089	-136.503000	1313.395997	761.253273	-162.531975	1300.272835	658.440656	-176.750663	1129.124587	850.810079	-486.476137	1148.590488	732.307851	-443.501552	1029.387042	647.745174	-441.461204	1450.969750	480.080620	-235.516282	1415.141391	408.117318	-181.543839	873.147454	473.736537	-381.658168	773.561972	506.010663	-440.852004	674.392586	468.430301	-384.189607	1437.404995	147.976578	-300.915259	1647.779942	178.464248	-300.877961	1633.659869	114.431783	-216.731947	554.269664	574.699050	-401.673006	526.955570	383.593804	-322.868379	482.241485	374.225368	-421.532641	1262.872404	1500.662749	-490.041128	1160.192596	1497.950796	-143.566588	1266.125675	1452.127956	-269.177381	1172.696028	1536.209752	-336.316391	1097.096839	1456.752007	-110.512411	1064.131154	1373.637433	-120.791219	993.021118	1414.095343	-153.994937	904.656645	1339.670898	-144.220338	1249.284643	1426.093145	-548.199304	1180.634657	1379.014455	-551.977069	1244.969578	1324.380838	-572.893032	1181.044200	1220.685463	-617.278268	1121.842847	1220.450860	-570.588958	928.967153	1264.636045	-92.705517	944.298387	1081.738558	-51.420398	887.631150	1072.069017	-88.417973	1255.917557	1239.015490	-576.300641	1339.067857	1313.611882	-418.515304	1363.565990	1251.878200	-413.052380	922.966390	1326.423090	-204.758315	1500.503439	308.301009	-247.755667	
